<svg width="121" height="71" viewBox="0 0 121 71" fill="none" xmlns="http://www.w3.org/2000/svg">
<g id="&#229;&#144;&#141;&#231;&#167;&#176;&#230;&#156;&#170;&#232;&#168;&#173;&#229;&#174;&#154;-1 1" clip-path="url(#clip0_275_5)">
<path id="Vector" d="M60.4995 59.5317C38.2108 59.5317 17.5569 59.7434 0.5 60.1032V60.3444C17.5569 60.7056 38.2108 60.9172 60.4995 60.9172C82.7881 60.9172 103.442 60.7058 120.5 60.3444V60.1032C103.442 59.7436 82.7881 59.5317 60.4995 59.5317Z" fill="white"/>
<path id="Vector_2" d="M78.0462 46.6986C77.9147 47.1828 77.4104 47.5776 76.9181 47.5776C76.4258 47.5776 76.1337 47.1831 76.2655 46.6986C76.3992 46.2121 76.9064 45.8179 77.3969 45.8179C77.8873 45.8179 78.1802 46.2119 78.0465 46.6986H78.0462Z" fill="white"/>
<path id="Vector_3" d="M53.1115 51.3242C52.1668 51.5512 52.1543 52.3211 52.1872 52.6771C52.2535 53.3323 52.7327 53.8734 53.4375 54.3084C54.1168 54.7276 54.9414 54.9422 55.9073 54.9551C57.6361 54.9283 59.1443 54.2835 60.4316 53.0143C61.0089 52.445 61.4917 51.8656 61.8802 51.2734C62.3038 50.6347 63.2121 49.0827 64.6122 46.6169C65.3137 45.4015 66.1584 44.1812 67.1498 42.9563C68.141 41.7338 68.9976 40.8578 69.7255 40.3276C68.3754 39.2897 66.4991 38.7663 64.0995 38.7537C60.7321 38.7789 57.9151 39.997 55.6535 42.4105C53.7761 44.4098 52.9237 46.291 53.0979 48.0606C53.1848 48.9566 53.5457 49.6681 54.1784 50.1966C54.7919 50.7057 55.5761 50.968 56.5281 50.9852C58.1159 50.9496 59.6849 50.1821 61.235 48.6753C62.8179 47.1345 63.5411 45.6353 63.399 44.1812C63.2898 43.0597 62.5845 42.448 61.5162 42.448C60.4639 42.448 59.1309 43.1455 57.9067 44.4402C56.649 45.7712 56.0782 47.0208 56.1925 48.1861C56.2192 48.4727 56.3113 48.707 56.53 48.9282C56.6786 49.0789 56.9408 49.2273 57.2888 49.279L57.2486 49.4751C57.2486 49.4751 56.439 49.4668 55.9746 48.9564C55.6622 48.6127 55.5198 48.2414 55.4848 47.6425C55.4147 46.3955 55.9676 45.1776 57.2413 43.9915C58.5139 42.807 60.1558 42.2142 61.5477 42.2142C62.9396 42.2142 63.708 42.8529 63.831 44.126C63.9832 45.6804 63.248 47.2513 61.6295 48.8366C60.0083 50.4244 58.3368 51.2179 56.611 51.2179C55.0943 51.2179 54.3472 50.8837 53.6033 50.216C52.8623 49.5464 52.4369 48.6515 52.3266 47.5302C52.1062 45.264 53.1979 43.1953 55.6038 41.3256C58.0107 39.4537 60.8217 38.5205 63.9202 38.5205C67.0186 38.5205 68.4722 39.0198 70.1725 40.0167C71.5353 39.1434 72.6468 38.5763 74.4484 38.5763C79.7316 38.5763 78.2894 44.243 78.0547 44.7773L77.7775 44.7131C78.4133 42.7709 78.2413 38.9375 74.3908 38.9375C73.166 38.9375 71.773 39.3892 70.4672 40.233C71.7684 41.1968 72.4794 42.287 72.5984 43.5051C72.6992 44.5323 72.3555 45.5738 71.5975 46.335C70.8397 47.0987 70.0787 47.4908 68.8259 47.4946C68.1706 47.499 67.6516 47.4008 67.0871 47.1843C66.6477 47.015 66.4948 46.9448 66.4206 46.8849L66.5744 46.609C66.9129 46.8256 67.5498 47.0675 68.2067 47.0771C68.9794 47.0889 69.8869 46.6161 70.4689 45.8286C71.0489 45.0436 71.2867 44.1033 71.181 43.0143C71.0924 42.1144 70.7017 41.3084 70.0151 40.5931C68.4284 41.908 67.0208 44.1594 65.7878 47.3568C65.0241 49.3353 64.2872 50.7648 63.577 51.6389C62.8692 52.5123 61.8433 53.4146 60.478 54.1192C58.8617 54.9381 57.0383 55.3264 55.8453 55.3264C54.8158 55.3264 53.7704 55.0333 53.002 54.5441C52.2326 54.0549 51.762 53.4452 51.7158 52.7072C51.6892 52.2984 51.822 51.9304 52.0405 51.6373C52.2586 51.3415 52.7865 51.126 53.0911 51.1282L53.1112 51.3245L53.1115 51.3242Z" fill="white"/>
<path id="Vector_4" d="M49.1149 51.7685C49.1149 51.7685 46.0871 54.899 43.8698 54.9504C43.1438 54.9299 42.7311 54.6168 42.6732 53.9415C42.627 53.3842 42.8468 52.6875 43.3391 51.8552C45.1231 51.4976 46.384 51.1167 47.1258 50.7101C47.8645 50.3008 48.2126 49.8034 48.1618 49.2221C48.1417 48.9741 48.0164 48.7614 47.7914 48.5837C47.5665 48.4117 47.3065 48.3305 46.9011 48.3305C46.1985 48.3305 45.3573 48.614 44.3137 49.1981C42.9373 49.9688 42.0806 50.8252 41.7231 51.7644L41.5554 52.0081C40.2415 53.9278 39.4253 54.8995 38.6146 54.8686C38.2945 54.8514 38.1035 54.7647 38.0766 54.4489C38.0522 54.1624 38.4057 53.4586 39.1316 52.3318C39.7832 51.3215 40.0315 50.5523 40.0413 50.0137C40.0519 49.5284 39.9522 49.06 39.672 48.7742C39.3908 48.4847 39.1466 48.3515 38.6966 48.3515C37.7859 48.3515 36.767 49.3301 35.639 50.9056C36.4022 49.553 36.8043 48.8358 36.8404 48.7707C38.3464 46.1833 39.4799 44.2398 40.2377 42.9404C40.2016 42.95 39.6381 43.0542 39.2284 43.0542C38.8219 43.0542 38.5385 42.9869 38.5385 42.9869L36.8839 45.9916C35.649 48.2482 32.0952 55.0609 32.0952 55.0609C32.1343 55.0554 32.4922 54.9936 32.888 54.9936C33.2776 54.9936 33.5578 55.0557 33.5917 55.0609C34.8546 52.6126 35.8661 50.951 36.6334 50.0747C37.4012 49.1904 38.0313 48.7365 38.5279 48.7048C38.8368 48.7209 39.0096 48.8672 39.0346 49.1538C39.0564 49.4086 38.6255 50.2174 37.7408 51.5769C37.1719 52.4524 36.914 53.1619 36.9624 53.7058C36.9964 54.1115 37.1534 54.4457 37.4305 54.7131C37.7085 54.984 38.0397 55.1582 38.5024 55.1582C39.5941 55.1582 40.2757 54.2231 41.5419 52.4641C41.5207 52.6539 41.5163 52.8461 41.5313 53.0422C41.5853 53.6549 41.8252 54.1673 42.254 54.5774C42.6789 54.984 43.0892 55.1883 43.8651 55.1883C45.4328 55.1883 47.4418 53.7676 49.2795 51.9145L49.1154 51.7694L49.1149 51.7685ZM47.3296 48.8839C47.37 49.3659 47.0016 49.8803 46.2248 50.4216C45.4777 50.945 44.549 51.3499 43.4473 51.6452C44.0426 50.7216 44.6666 49.9686 45.3195 49.3823C45.9605 48.812 46.4933 48.5238 46.9209 48.5044C47.1682 48.5238 47.3094 48.6444 47.3296 48.8839Z" fill="white"/>
<path id="Vector_5" d="M94.3842 51.192C94.1984 51.4813 93.9544 52.0897 93.9256 52.2723C93.8704 52.6174 93.8514 52.8706 93.8642 53.0409C93.9171 53.6537 94.1576 54.1661 94.5847 54.5762C95.0113 54.9828 95.4232 55.1871 96.1978 55.1871C97.7644 55.1871 99.7739 53.7663 101.612 51.9133L101.447 51.7681C101.447 51.7681 98.4194 54.8986 96.2021 54.95C95.4761 54.9295 95.0645 54.6164 95.0061 53.9411C94.9599 53.3838 95.1803 52.6871 95.6726 51.8548C97.4555 51.4972 98.7175 51.1163 99.4592 50.7097C100.198 50.3004 100.546 49.803 100.495 49.2217C100.474 48.9737 100.348 48.761 100.125 48.5833C99.8996 48.4113 99.6396 48.3301 99.2343 48.3301C98.5317 48.3301 97.6899 48.6136 96.6463 49.1977C95.6335 49.7656 94.8469 50.5175 94.3842 51.192ZM99.6622 48.8838C99.7035 49.3658 99.3348 49.8801 98.5575 50.4215C97.8114 50.9449 96.8816 51.3498 95.781 51.6451C96.3763 50.7215 96.9993 49.9684 97.6522 49.3822C98.2936 48.8119 98.8259 48.5237 99.2546 48.5042C99.5024 48.5237 99.6432 48.6442 99.6622 48.8838Z" fill="white"/>
<path id="Vector_6" d="M20.7119 50.9523C20.7119 50.9523 19.5561 51.1983 19.4297 52.4282C19.3512 53.1949 19.8022 54.0294 20.5377 54.5131C21.2743 55.0001 22.3844 55.3109 23.5063 55.3109H23.6125C25.7171 55.3109 27.3823 54.8644 29.2663 53.3822C29.9784 52.8064 30.8475 51.6613 31.2412 51.051C31.6393 50.442 32.2473 49.2198 33.0708 47.3851C33.8976 45.5488 34.6809 44.1284 35.4292 43.1293C36.169 42.1345 37.002 41.3845 37.9258 40.873C39.7147 41.2068 41.4171 41.3733 42.5207 41.3733C43.6244 41.3733 44.7538 41.2238 45.5795 40.9252C46.4052 40.6269 46.8076 40.2608 46.7861 39.8296C46.7554 39.1479 45.6866 38.8045 44.1319 38.8045C42.5773 38.8045 40.7297 39.2001 38.9824 39.9933C36.8512 39.5529 35.9731 39.3697 35.4259 39.2827C34.8985 39.2089 33.8669 39.1137 33.2896 39.1137C32.3726 39.1129 30.9016 39.292 29.9857 39.4823C29.2693 38.5603 28.3221 38.0282 26.9375 38.005C25.5505 37.9848 23.8291 38.478 22.4461 40.1156C21.769 40.9183 21.5536 41.4791 21.5536 41.4791L21.7796 41.5937C22.2614 40.7461 22.7656 39.867 24.1192 39.041C25.0506 38.4712 26.0184 38.3052 26.9598 38.2989C28.0594 38.3164 28.9348 38.7378 29.5749 39.5761C28.3151 39.9042 27.1731 40.48 26.1426 41.3055C25.1109 42.131 24.2874 43.0943 23.6655 44.1997C23.0458 45.3071 22.7575 46.3095 22.8015 47.2192C22.83 47.8817 23.0493 48.4217 23.4541 48.8417C23.8606 49.2608 24.3638 49.4697 25.0916 49.4697C26.568 49.4697 27.9233 48.6998 29.1511 47.1618C30.38 45.6207 30.9489 43.9731 30.8693 42.2179C30.8269 41.3173 30.6038 40.5148 30.2061 39.8104C30.2061 39.8104 30.6932 39.7484 31.1304 39.7546C32.1876 39.7675 33.6786 39.9892 35.64 40.4215C36.4885 40.6137 36.9379 40.7406 37.3604 40.812C35.2276 41.8756 33.4251 44.0895 31.5762 47.462C30.4471 49.5381 29.5151 51.0291 28.7797 51.93C27.2312 53.8435 25.4236 54.81 23.3647 54.827C22.4382 54.8185 21.553 54.6277 20.8928 54.1885C20.2231 53.7431 19.9335 53.1643 19.9397 52.5179C19.9514 51.4379 20.673 51.2065 20.7942 51.1171L20.7113 50.9525L20.7119 50.9523ZM45.8001 39.2674C46.2501 39.426 46.475 39.6198 46.49 39.8462C46.5016 40.0967 46.2851 40.3042 45.8436 40.4852C45.4105 40.6575 44.8916 40.7444 44.2835 40.7507C43.3326 40.7444 42.2458 40.6266 41.0169 40.3852C40.1706 40.2304 39.6478 40.1333 39.4525 40.1033C40.9634 39.3929 42.5387 39.0396 44.1805 39.0325C44.8269 39.0353 45.3692 39.1132 45.8001 39.2671V39.2674ZM23.6867 48.6571C23.3226 48.2656 23.1262 47.7824 23.102 47.2071C23.0303 45.7047 23.7079 44.1765 25.1332 42.6278C26.5319 41.1065 28.073 40.1935 29.7616 39.8812C30.0645 40.4191 30.2359 41.0034 30.2637 41.6344C30.3476 43.3748 29.7972 45.0796 28.618 46.7431C27.457 48.3829 26.2295 49.2138 24.9433 49.2373C24.4594 49.2256 24.038 49.0364 23.6867 48.6571Z" fill="white"/>
<path id="Vector_7" d="M66.9543 51.1899C68.1251 49.2887 68.8834 48.5852 69.2749 48.6082C69.4591 48.6177 69.5322 48.7315 69.5387 48.8791C69.561 49.2663 69.1483 50.2578 68.262 51.8603L66.4419 55.1253C66.481 55.1206 66.9342 55.0225 67.3037 55.0124C67.6719 55.0033 68.0848 55.0553 68.1221 55.0597C68.8087 53.7289 69.2991 52.8498 69.5876 52.4173C69.8509 52.0205 70.1973 51.6238 70.6244 51.2232C70.5714 51.5141 70.5502 51.7646 70.5644 51.9637C70.6263 52.6732 70.9809 53.0049 71.5998 53.053C72.1994 53.1008 73.1759 52.6059 73.7299 52.0782C73.4302 52.7566 73.246 53.3775 73.2789 53.7464C73.3118 54.144 73.4688 54.4808 73.7511 54.7493C74.0372 55.0173 74.3018 55.1518 74.8634 55.1518C75.7242 55.1518 76.7759 54.1029 78.1512 52.0104L78.6245 51.299C79.704 49.6819 80.5848 48.5863 81.0073 48.6281C81.1815 48.6448 81.3046 48.7315 81.3152 48.8969C81.3418 49.3224 80.8726 50.3898 79.9216 52.0916L78.2257 55.1258C78.2607 55.1206 78.6259 55.023 79.1098 55.0129C79.5268 55.005 79.8643 55.0558 79.9015 55.0602C82.0134 50.7825 83.7637 48.5497 84.876 48.5497C85.2251 48.5497 85.3781 48.7233 85.4045 49.0366C85.4267 49.2967 85.1434 49.9108 84.5538 50.8678C83.9887 51.7821 83.6436 52.3902 83.517 52.6995C83.3901 53.006 83.3412 53.3412 83.3733 53.6991C83.4072 54.1106 83.5599 54.4488 83.837 54.7318C84.1066 55.0104 84.4101 55.1666 84.8977 55.1666C85.4561 55.1666 86.1783 54.5823 87.0569 53.441C87.2803 53.1522 87.474 52.8736 87.6799 52.5734C87.6737 52.6828 87.6337 52.8725 87.6433 52.977C87.6957 53.5711 87.944 54.0816 88.3964 54.509C88.8469 54.9361 89.2699 55.1668 90.0605 55.1668C90.9457 55.1668 91.9241 54.4343 93.1321 53.1309C93.7907 52.42 94.2719 51.6908 94.4895 51.4283L94.3145 51.2992C94.3145 51.2992 94.0428 51.6591 93.9154 51.8283C92.4243 53.7929 91.1378 54.8456 90.0404 54.9301C89.3539 54.9065 88.9808 54.5672 88.9191 53.8396C88.8428 52.9455 89.2487 51.8414 90.1445 50.5216C91.0169 49.2362 91.9391 48.5499 92.4678 48.5499C92.8069 48.5499 93.0462 48.7391 93.0758 49.0776C93.1152 49.5299 92.8487 49.893 92.2809 50.173C91.5359 50.5271 91.1835 50.9175 91.2196 51.3361C91.2503 51.693 91.4519 51.8699 91.8247 51.8699C92.1888 51.8699 92.6705 51.5978 93.0074 51.0485C93.3475 50.5036 93.4951 49.9548 93.4467 49.4049C93.3877 48.7074 93.0503 48.3572 92.4379 48.3572C91.7608 48.3572 91.1941 48.5827 90.4276 49.0317C89.5207 49.5493 88.814 50.173 88.3114 50.8894C88.0217 51.305 87.8359 51.7116 87.7329 52.1091C86.4953 53.972 85.5137 54.9399 84.9073 54.9301C84.6149 54.9106 84.4769 54.7851 84.4356 54.5284C84.3878 54.2175 84.7497 53.4413 85.4428 52.3167C86.1188 51.2128 86.4339 50.3939 86.3853 49.8572C86.3497 49.4331 86.197 49.0774 85.9226 48.7908C85.6471 48.5045 85.3602 48.3572 84.9621 48.3572C84.4187 48.3572 83.9381 48.5981 83.4518 49.0776C83.0586 49.4656 82.5391 50.1284 81.9023 51.0515C82.1751 50.4727 82.2813 49.9942 82.2704 49.6209C82.2598 49.2797 82.1547 48.8947 81.9352 48.6448C81.7145 48.3968 81.4236 48.2861 81.0277 48.3296C80.3729 48.3968 79.855 49.1047 78.7289 50.7362C78.7289 50.7362 78.1504 51.5844 78.0263 51.7772C76.5626 54.042 75.5247 54.9295 74.9202 54.9295C74.5339 54.9295 74.3741 54.766 74.3434 54.4264C74.3138 54.074 74.473 53.5769 74.8251 52.9272L77.2641 48.4515C77.225 48.457 76.7569 48.5352 76.2898 48.5352C75.8198 48.5352 75.6228 48.4572 75.5883 48.4515L74.1576 51.2178C73.4973 52.2486 72.3108 52.8099 71.656 52.8334C71.1689 52.8099 70.8347 52.4936 70.8143 51.8833C70.8059 51.6383 70.845 51.3531 70.9268 50.9853C70.9268 50.9853 71.6824 50.4538 71.8587 50.3412C72.9433 49.6242 73.4688 49.0714 73.4378 48.6853C73.4199 48.4665 73.3137 48.3577 73.0292 48.3577C72.6418 48.3577 72.16 48.5986 71.7397 49.0809C71.3153 49.5641 71.0116 50.0811 70.7632 50.7983C70.4454 51.0674 70.1753 51.3392 69.9098 51.6446C70.3682 50.7833 70.5614 50.1487 70.5138 49.5988C70.4437 48.7733 70.0033 48.3708 69.3167 48.3577C68.7788 48.349 68.177 48.8865 66.7696 51.0983L66.9543 51.2115" fill="white"/>
<path id="Vector_8" d="M74.0386 22.6726C72.5937 22.0158 69.9153 21.9234 67.479 22.8394C64.0271 24.1338 63.1834 24.9615 61.9893 25.674C60.7042 25.3664 59.7416 25.1055 59.0947 24.9103C59.0947 24.9103 61.8918 22.5654 63.938 18.8895C64.4876 19.003 65.2603 19.0658 65.9472 19.0571C68.5144 18.9581 72.5782 17.8748 73.8593 14.1589C75.5128 9.36551 72.7831 6.0535 70.2019 4.02878C69.9376 3.82015 69.6607 3.62383 69.3762 3.43681C70.7432 1.17721 72.322 0.459198 73.8242 0.342445L73.7574 0.00421729C72.8855 -0.044726 70.4158 0.301158 68.0718 2.69883C66.1637 1.77274 63.8817 1.27455 61.2539 1.32104C53.1657 1.46404 46.3879 6.99463 46.5431 14.5666C46.6183 18.2557 49.294 20.0474 52.3623 20.0644C57.2963 20.1147 61.2147 15.1561 60.458 10.0811C60.148 7.79002 58.8352 6.63124 57.5427 6.5864C55.8903 6.48961 54.7812 7.66862 54.4044 8.41234C54.121 8.92009 53.9384 9.41035 53.7379 9.95501L54.0753 10.0832C54.0753 10.0832 55.0412 7.08732 57.4705 7.21009C58.5382 7.26368 59.453 8.42027 59.6017 9.97005L59.609 10.0308C59.9497 13.5629 56.8062 19.6253 52.2998 19.4467C49.9765 19.2925 48.9555 17.0149 48.943 14.5956C48.9579 7.39684 54.0319 1.98601 61.3509 1.87801C63.4587 1.84711 65.7043 2.16756 67.6572 3.19893C65.6513 5.57664 63.8238 8.48644 61.7543 14.7011C60.2344 19.2676 60.0964 22.1102 58.182 24.6243C55.1849 23.6758 52.061 22.9761 49.8657 22.8848C47.049 22.8036 45.2979 24.1972 45.6364 25.8077C45.975 27.4163 48.5159 27.9577 50.271 27.9899C52.6256 28.0339 55.3007 27.4026 57.23 26.4423C57.8019 26.6255 58.8708 26.9706 59.8845 27.282C59.8845 27.282 58.7934 28.0487 57.8647 28.5882C57.6098 28.7358 56.5785 29.2985 55.6762 29.7319L55.8821 30.1183C56.5024 29.8325 57.2979 29.4426 58.1035 28.9835C59.014 28.4124 59.6647 28.0361 60.4888 27.4789C62.689 28.1376 65.2608 28.9343 67.6458 28.9751C69.4613 29.006 71.6311 28.3599 73.2909 27.3137C73.8978 26.9274 74.435 26.4675 74.8605 25.9215C75.3199 25.333 76.1287 23.6225 74.0391 22.6723L74.0386 22.6726ZM65.2508 15.566C66.5669 11.1701 66.7068 8.4066 69.026 4.07662C71.778 6.20743 72.2986 9.23016 71.1349 12.9941C70.0185 16.6069 67.2241 18.0451 65.5578 18.256C65.1769 18.3074 64.6547 18.3563 64.2365 18.3131L64.4275 17.857C64.7066 17.291 65.0198 16.3398 65.2511 15.5663L65.2508 15.566ZM50.0963 27.4308C48.6699 27.4368 46.2937 26.9662 46.1184 25.7817C45.9486 24.641 47.4812 24.2834 49.7472 24.4958C51.3233 24.5997 54.5815 25.6759 56.2351 26.1481C54.9483 26.7877 52.4414 27.4193 50.0963 27.4308ZM73.5457 25.8113C72.2345 26.6578 70.2582 26.9118 67.6868 26.7346C66.1746 26.6313 64.3028 26.2014 62.6319 25.8225C64.2833 24.8031 66.4289 23.6115 68.6687 23.1738C70.9092 22.7344 72.3489 22.8886 73.4044 23.3015C74.7453 23.8245 74.5187 25.184 73.546 25.8115L73.5457 25.8113Z" fill="white"/>
<g id="Group">
<path id="Vector_9" d="M49.5458 70.8864H45.979V70.8602C46.4216 70.703 46.3694 70.0566 46.3694 69.6639V66.3626C46.3694 65.9609 46.4216 65.3233 45.979 65.1576V65.1313H47.6366V65.1576C47.1943 65.3236 47.2549 65.9697 47.2549 66.3626V70.1793L48.4351 70.2578C49.0253 70.2928 49.5372 70.0918 49.98 69.7252H50.0058L49.5461 70.8867L49.5458 70.8864Z" fill="white"/>
<path id="Vector_10" d="M55.2131 71C54.6403 70.9653 54.0676 70.7905 54.0676 70.0917V68.712C53.816 68.8429 53.5209 68.9129 53.2346 68.9826C52.818 69.0789 52.3494 69.1749 52.3494 69.7075C52.3494 70.2489 52.8352 70.4236 53.2951 70.4236C53.5035 70.4236 53.7117 70.3626 53.9201 70.3014L53.4082 70.9565C53.2606 70.9825 53.1044 71 52.9569 71C52.0804 71 51.4731 70.4411 51.4731 69.7162C51.4731 68.0918 54.0676 68.8429 54.0676 67.8911C54.0676 67.472 53.5557 67.3322 53.2346 67.3322C52.792 67.3322 52.4447 67.4982 52.0543 67.6817L52.6357 66.8084L53.1998 66.7559C54.1371 66.7559 54.8487 67.0266 54.8574 68.0833V69.3933C54.8574 70.0832 54.8748 70.3454 55.5951 70.4239L55.2133 71.0003L55.2131 71Z" fill="white"/>
<path id="Vector_11" d="M57.0425 70.8865V70.8603C57.4155 70.6418 57.3636 70.3189 57.3636 69.917V66.1005C57.3636 65.6988 57.4158 65.3756 57.0425 65.1572V65.1309H57.6152C57.8062 65.1309 58.0143 65.1222 58.1271 64.9912H58.1532V69.9167C58.1532 70.3184 58.101 70.6416 58.4917 70.86V70.8863L57.0425 70.8865ZM60.4876 70.8865C59.9844 70.8865 59.7673 70.6331 59.6024 70.3977L58.3181 68.6423L59.0384 67.8474C59.1685 67.6989 59.481 67.3673 59.481 67.1488C59.481 67.0266 59.403 66.9478 59.316 66.8954V66.8694H60.6351L59.1859 68.555L60.2444 69.9085C60.5137 70.2664 60.7737 70.6421 61.1731 70.8868H60.4876V70.8865Z" fill="white"/>
<path id="Vector_12" d="M65.9656 70.7821C65.5926 70.9393 65.1758 71.0003 64.768 71.0003C63.2927 71.0003 62.2773 70.0657 62.2773 68.8519C62.2773 67.6382 63.1538 66.7559 64.4468 66.7559C65.6271 66.7559 66.4427 67.612 66.4082 68.7385H63.2147C63.2321 69.804 63.9697 70.4239 64.9503 70.4239C65.4711 70.4239 65.9743 70.2754 66.3737 69.9612H66.4085L65.9659 70.7823L65.9656 70.7821ZM64.3689 67.3322C63.7874 67.3322 63.3535 67.6817 63.2495 68.2318H65.4883C65.3929 67.6207 64.9938 67.3322 64.3689 67.3322Z" fill="white"/>
</g>
<g id="Group_2">
<path id="Vector_13" d="M11.282 70.8864V70.8602C11.7333 70.6942 11.6724 70.0568 11.6724 69.6637V68.083H8.53108V69.6637C8.53108 70.0568 8.47892 70.6942 8.91282 70.8602V70.8864H7.26416V70.8602C7.69806 70.6942 7.6459 70.0568 7.6459 69.6637V66.3538C7.6459 65.9609 7.70676 65.3233 7.26416 65.1573V65.1313H8.91282V65.1573C8.47892 65.3233 8.53108 65.9609 8.53108 66.3626V67.4541H11.6724V66.3626C11.6724 65.9609 11.7333 65.3233 11.282 65.1573V65.1313H12.9481V65.1573C12.5055 65.3233 12.5576 65.9609 12.5576 66.3538V69.6637C12.5576 70.0568 12.5055 70.6942 12.9481 70.8602V70.8864H11.282Z" fill="white"/>
<path id="Vector_14" d="M18.5788 71.0005C18.0061 70.9655 17.4334 70.7908 17.4334 70.0921V68.7124C17.1818 68.8434 16.8867 68.9131 16.6003 68.9831C16.1838 69.0791 15.7151 69.1751 15.7151 69.708C15.7151 70.2494 16.2009 70.4241 16.6609 70.4241C16.869 70.4241 17.0774 70.3628 17.2856 70.3019L16.7737 70.957C16.6261 70.9832 16.4699 71.0007 16.3224 71.0007C15.4459 71.0007 14.8384 70.4419 14.8384 69.7167C14.8384 68.0923 17.4331 68.8434 17.4331 67.8916C17.4331 67.4725 16.9212 67.3327 16.6001 67.3327C16.1575 67.3327 15.8105 67.4984 15.4198 67.6819L16.0012 66.8088L16.5653 66.7563C17.5024 66.7563 18.2142 67.027 18.2229 68.0838V69.3938C18.2229 70.0839 18.2403 70.3459 18.9606 70.4244L18.5788 71.0007V71.0005Z" fill="white"/>
<path id="Vector_15" d="M20.5996 70.8865V70.8602C20.9726 70.6421 20.9208 70.3189 20.9208 69.9169V66.1007C20.9208 65.6991 20.9726 65.3759 20.5996 65.1574V65.1314H21.1723C21.3634 65.1314 21.5715 65.1227 21.6842 64.9917H21.7103V69.9172C21.7103 70.3191 21.6584 70.6423 22.0488 70.8605V70.8868L20.5996 70.8865ZM24.0447 70.8865C23.5415 70.8865 23.3245 70.6333 23.1595 70.3973L21.8752 68.6419L22.5955 67.8474C22.7256 67.6989 23.0381 67.3672 23.0381 67.1485C23.0381 67.0263 22.9598 66.9478 22.8732 66.8953V66.869H24.1923L22.743 68.5544L23.8018 69.9082C24.0708 70.2661 24.3311 70.6418 24.7302 70.8862H24.0447V70.8865Z" fill="white"/>
<path id="Vector_16" d="M28.1546 71.0003C26.9656 71.0003 25.959 70.1532 25.959 68.9129C25.959 67.6029 27.0091 66.7559 28.2586 66.7559C29.4128 66.7559 30.4281 67.6902 30.4281 68.8342C30.4281 70.0919 29.378 71.0003 28.1546 71.0003ZM28.1633 67.3322C27.3563 67.3322 26.8355 67.9696 26.8355 68.7557C26.8355 69.559 27.3129 70.4236 28.198 70.4236C28.9966 70.4236 29.5432 69.8035 29.5432 69.0176C29.5432 68.1706 29.0919 67.3322 28.1633 67.3322Z" fill="white"/>
<path id="Vector_17" d="M34.5809 70.8865V70.8603C34.9629 70.6421 34.9108 70.3189 34.9108 69.9257V68.7469C34.9108 67.8124 34.6505 67.3322 33.8607 67.3322C33.0708 67.3322 32.9407 67.8649 32.9407 68.3803V69.926C32.9407 70.3279 32.8888 70.6423 33.2705 70.8605V70.8868H31.8213V70.8605C32.2033 70.6423 32.1511 70.3191 32.1511 69.9172V67.8389C32.1511 67.437 32.2033 67.114 31.8213 66.8956V66.8693H32.3334C32.5242 66.8693 32.7326 66.8606 32.9149 66.7559H32.941V67.4282C33.2447 67.0091 33.6004 66.7559 34.1644 66.7559C34.6505 66.7559 35.2058 66.9478 35.4835 67.3585C35.7264 67.7077 35.7003 68.249 35.7003 68.6597V69.926C35.7003 70.3279 35.6484 70.6423 36.0388 70.8605V70.8868L34.5809 70.8865Z" fill="white"/>
<path id="Vector_18" d="M41.4983 70.7818C41.1253 70.939 40.7088 71.0003 40.3007 71.0003C38.8254 71.0003 37.8101 70.0657 37.8101 68.8517C37.8101 67.6377 38.6866 66.7559 39.9796 66.7559C41.1598 66.7559 41.9754 67.6117 41.9407 68.7385H38.7471C38.7645 69.8037 39.5022 70.4239 40.4827 70.4239C41.0033 70.4239 41.5068 70.2754 41.9059 69.961H41.9407L41.4981 70.7818H41.4983ZM39.9016 67.3322C39.3202 67.3322 38.8862 67.6814 38.7822 68.2318H41.0212C40.9259 67.6204 40.5265 67.3322 39.9016 67.3322Z" fill="white"/>
</g>
<g id="Group_3">
<path id="Vector_19" d="M74.114 70.8864V70.8602C74.5392 70.6682 74.47 70.572 74.2355 69.9606L73.7584 68.7294H71.5715L71.1202 69.9606C70.9382 70.4498 70.8773 70.703 71.2938 70.8602V70.8864H69.6968V70.8602C70.2 70.607 70.3475 70.1178 70.5385 69.6202L71.9877 65.9697C72.1092 65.6552 72.2741 65.2883 71.8576 65.1573V65.1313H73.2286L75.0335 69.6027L75.0421 69.6202C75.2416 70.1178 75.3981 70.607 75.8926 70.8602V70.8864H74.1135H74.114ZM72.6561 65.8737L71.797 68.0833H73.5065L72.6561 65.8737Z" fill="white"/>
<path id="Vector_20" d="M78.7074 71.0003C78.317 71.0003 77.944 70.939 77.5796 70.7905L77.2759 69.9347C77.7791 70.2579 78.3086 70.4239 78.9074 70.4239C79.2631 70.4239 79.8619 70.3016 79.8619 69.8562C79.8619 68.9742 77.5104 69.2536 77.5104 67.9261C77.5104 67.0003 78.4648 66.7559 79.2112 66.7559C79.5323 66.7559 79.8619 66.7821 80.1743 66.8693V67.6117C79.8532 67.437 79.4889 67.3322 79.1071 67.3322C78.8207 67.3322 78.3002 67.402 78.3002 67.7514C78.3002 68.5285 80.652 68.249 80.652 69.6378C80.652 70.4501 79.8274 71.0003 78.708 71.0003H78.7074Z" fill="white"/>
<path id="Vector_21" d="M84.8416 70.8863V70.86C85.2236 70.6418 85.1627 70.3186 85.1627 69.9167V68.5892C85.1627 67.8819 84.9372 67.3317 84.1909 67.3317C83.4271 67.3317 83.1926 67.7596 83.1926 68.5367V69.9164C83.1926 70.3184 83.1405 70.6416 83.5225 70.8598V70.886H82.0732V70.8598C82.4552 70.6416 82.4031 70.3184 82.4031 69.9164V66.1002C82.4031 65.6986 82.4552 65.3754 82.0732 65.1569V65.1309H82.6373C82.8367 65.1309 83.0454 65.1309 83.1666 64.9912H83.1926V67.3055C83.4529 66.9298 84.043 66.7554 84.4683 66.7554C85.6659 66.7554 85.9523 67.4802 85.9523 68.3273V69.9167C85.9523 70.3186 85.9001 70.6418 86.2908 70.86V70.8863H84.8416Z" fill="white"/>
<path id="Vector_22" d="M88.332 70.8862V70.86C88.714 70.6418 88.6619 70.3186 88.6619 69.9167V67.8296C88.6619 67.4277 88.714 67.1135 88.332 66.895V66.8688H88.8613C89.0607 66.8688 89.2778 66.86 89.4253 66.7291H89.4514V69.9167C89.4514 70.3186 89.3993 70.6418 89.7813 70.86V70.8862H88.332ZM89.0262 66.3361C88.7053 66.3361 88.4624 66.083 88.4624 65.7598C88.4624 65.4541 88.7398 65.2446 89.0262 65.2446C89.3213 65.2446 89.5471 65.4978 89.5471 65.786C89.5471 66.0742 89.3213 66.3361 89.0262 66.3361Z" fill="white"/>
<path id="Vector_23" d="M94.5819 70.8865V70.8603C94.9639 70.6421 94.9117 70.3189 94.9117 69.9257V68.7469C94.9117 67.8124 94.6514 67.3322 93.8616 67.3322C93.0718 67.3322 92.9417 67.8649 92.9417 68.3803V69.926C92.9417 70.3279 92.8895 70.6423 93.2715 70.8605V70.8868H91.8223V70.8605C92.2043 70.6423 92.1521 70.3191 92.1521 69.9172V67.8389C92.1521 67.437 92.2043 67.114 91.8223 66.8956V66.8693H92.3341C92.5251 66.8693 92.7335 66.8606 92.9156 66.7559H92.9417V67.4282C93.2454 67.0091 93.6013 66.7559 94.1654 66.7559C94.6512 66.7559 95.2068 66.9478 95.4845 67.3585C95.7274 67.7077 95.7013 68.249 95.7013 68.6597V69.926C95.7013 70.3279 95.6491 70.6423 96.0398 70.8605V70.8868L94.5819 70.8865Z" fill="white"/>
<path id="Vector_24" d="M100.066 71.0003C98.8775 71.0003 97.8706 70.1532 97.8706 68.9129C97.8706 67.6029 98.9207 66.7559 100.17 66.7559C101.324 66.7559 102.34 67.6902 102.34 68.8342C102.34 70.0919 101.29 71.0003 100.066 71.0003ZM100.075 67.3322C99.2679 67.3322 98.7471 67.9696 98.7471 68.7557C98.7471 69.559 99.2242 70.4236 100.11 70.4236C100.908 70.4236 101.455 69.8035 101.455 69.0176C101.455 68.1706 101.004 67.3322 100.075 67.3322Z" fill="white"/>
<path id="Vector_25" d="M103.756 70.8865V70.8602C104.13 70.6421 104.077 70.3189 104.077 69.9169V66.1007C104.077 65.6991 104.13 65.3759 103.756 65.1574V65.1314H104.329C104.52 65.1314 104.728 65.1227 104.841 64.9917H104.867V69.9172C104.867 70.3191 104.815 70.6423 105.206 70.8605V70.8868L103.756 70.8865ZM107.202 70.8865C106.698 70.8865 106.481 70.6333 106.317 70.3973L105.032 68.6419L105.752 67.8474C105.882 67.6989 106.195 67.3672 106.195 67.1485C106.195 67.0263 106.117 66.9478 106.03 66.8953V66.869H107.349L105.9 68.5544L106.959 69.9082C107.228 70.2661 107.488 70.6418 107.887 70.8862H107.202V70.8865Z" fill="white"/>
<path id="Vector_26" d="M111.462 71.0003C110.274 71.0003 109.267 70.1532 109.267 68.9129C109.267 67.6029 110.317 66.7559 111.566 66.7559C112.72 66.7559 113.736 67.6902 113.736 68.8342C113.736 70.0919 112.686 71.0003 111.462 71.0003ZM111.471 67.3322C110.664 67.3322 110.143 67.9696 110.143 68.7557C110.143 69.559 110.62 70.4236 111.506 70.4236C112.304 70.4236 112.851 69.8035 112.851 69.0176C112.851 68.1706 112.4 67.3322 111.471 67.3322H111.471Z" fill="white"/>
</g>
</g>
<defs>
<clipPath id="clip0_275_5">
<rect width="120" height="71" fill="white" transform="translate(0.5)"/>
</clipPath>
</defs>
</svg>
